<svg
   role="img"
   height="11.705909mm"
   viewBox="0 0 67.907623 11.705909"
   version="1.1"
   id="svg5"
   xml:space="preserve"
   inkscape:version="1.2 (dc2aedaf03, 2022-05-15)"
   sodipodi:docname="manalisk_text_white.svg"
   xmlns:inkscape="http://www.inkscape.org/namespaces/inkscape"
   xmlns:sodipodi="http://sodipodi.sourceforge.net/DTD/sodipodi-0.dtd"
   xmlns="http://www.w3.org/2000/svg"
   xmlns:svg="http://www.w3.org/2000/svg">
   <title>Manalisk</title>
   <sodipodi:namedview
     id="namedview7"
     pagecolor="#ffffff"
     bordercolor="#666666"
     borderopacity="1.0"
     inkscape:showpageshadow="2"
     inkscape:pageopacity="0.0"
     inkscape:pagecheckerboard="0"
     inkscape:deskcolor="#d1d1d1"
     inkscape:document-units="mm"
     showgrid="false"
     inkscape:zoom="2.9825758"
     inkscape:cx="92.202183"
     inkscape:cy="21.457963"
     inkscape:window-width="1920"
     inkscape:window-height="1017"
     inkscape:window-x="-8"
     inkscape:window-y="-8"
     inkscape:window-maximized="1"
     inkscape:current-layer="text63" /><defs
     id="defs2" /><g
     inkscape:label="Layer 1"
     inkscape:groupmode="layer"
     id="layer1"
     transform="translate(-61.171223,-38.532813)">
     <g
       aria-label="MANALISK"
       id="text63"><path
         d="m 69.496834,39.094118 -4.046556,4.046556 -4.046555,-4.046556 v 10.5833 h 1.452609 v -7.076285 l 2.593946,2.593946 2.593946,-2.593946 v 7.076285 h 1.45261 z"
         id="path15429"/><path
         d="m 74.580964,39.094118 -3.631524,3.631525 v 6.951775 h 1.45261 v -3.631525 h 4.357829 v 3.631525 h 1.45261 v -6.951775 z m 2.178915,5.499166 H 72.40205 v -1.265846 l 2.178914,-2.178915 2.178915,2.178915 z"
         id="path15431"/><path
         d="m 85.475545,40.546728 v 4.357829 l -5.810439,-5.810439 v 10.5833 h 1.452609 v -7.076285 l 4.35783,4.357829 v 2.718456 h 1.452609 v -10.5833 z"
         id="path15433"/><path
         d="m 92.012298,39.094118 -3.631525,3.631525 v 6.951775 h 1.45261 v -3.631525 h 4.357829 v 3.631525 h 1.45261 v -6.951775 z m 2.178914,5.499166 h -4.357829 v -1.265846 l 2.178915,-2.178915 2.178914,2.178915 z"
         id="path15435"/><path
         d="m 98.549051,48.224808 v -7.67808 l -1.45261,-1.45261 v 10.5833 h 6.017959 v -1.45261 z"
         id="path15437"/><path
         d="m 104.56701,39.094118 1.45261,1.45261 h 1.45261 v 7.67808 h -1.45261 l -1.45261,1.45261 h 7.26305 l -1.45261,-1.45261 h -1.45261 v -7.67808 h 1.45261 l 1.45261,-1.45261 z"
         id="path15439"/><path
         d="m 115.5446,43.659463 -0.80931,-0.809311 v -2.303424 h 5.39541 l -1.45261,-1.45261 h -5.39541 v 4.357829 l 1.66012,1.660126 h 2.92597 l 0.80932,0.809311 v 2.303424 h -5.39541 l 1.45261,1.45261 h 5.39541 v -4.35783 l -1.66013,-1.660125 z"
         id="path15441"/><path
         d="m 128.84635,39.094118 -4.56535,4.565345 h -1.24509 v -3.112735 l -1.45261,-1.45261 v 10.5833 h 1.45261 v -4.565345 h 1.24509 l 4.56535,4.565345 v -2.054405 l -3.23725,-3.237245 3.23725,-3.237245 z"
         id="path15443"/></g></g></svg>
