<?xml version="1.0" standalone="no"?>
<!DOCTYPE svg PUBLIC "-//W3C//DTD SVG 20010904//EN"
 "http://www.w3.org/TR/2001/REC-SVG-20010904/DTD/svg10.dtd">
<svg version="1.0" xmlns="http://www.w3.org/2000/svg"
 width="1024.000000pt" height="1024.000000pt" viewBox="0 0 1024.000000 1024.000000"
 preserveAspectRatio="xMidYMid meet">

<g transform="translate(0.000000,1024.000000) scale(0.100000,-0.100000)"
fill="#000000" stroke="none">
<path d="M0 5120 l0 -5120 5120 0 5120 0 0 5120 0 5120 -5120 0 -5120 0 0
-5120z m5198 4706 l3 -87 82 1 c45 1 89 1 97 0 8 -1 48 2 89 6 l74 7 -5 -77
c-3 -42 -10 -82 -15 -87 -6 -6 -156 -10 -412 -9 l-401 0 0 -86 0 -87 -92 7
c-51 4 -130 9 -176 13 -72 5 -82 4 -77 -10 4 -8 -2 -21 -12 -28 -11 -8 -22
-22 -26 -31 -3 -10 -14 -18 -24 -18 -10 0 -28 -3 -40 -6 -17 -5 -22 -1 -26 18
-2 12 -5 -3 -6 -34 l-1 -58 -90 0 -90 0 0 -109 0 -109 65 0 c36 0 69 -2 72 -6
8 -8 22 -153 22 -240 l1 -69 79 6 78 6 7 -61 c3 -33 6 -94 6 -134 l0 -74 80 0
80 0 0 -175 0 -175 -75 0 c-43 0 -75 -4 -75 -10 0 -5 7 -10 15 -10 9 0 18 -6
21 -14 4 -10 16 -14 36 -11 24 3 31 -1 35 -16 3 -12 11 -18 19 -15 10 4 14 -3
14 -19 0 -14 4 -25 10 -25 5 0 12 -10 15 -23 5 -18 13 -23 39 -24 29 -1 32 2
28 23 -4 25 12 34 21 12 4 -10 8 -9 16 2 10 13 12 13 21 0 5 -8 10 -25 10 -37
0 -26 -21 -29 -97 -14 -23 4 -46 5 -50 1 -4 -4 -45 -10 -90 -12 l-83 -5 0 82
c0 45 -3 129 -6 186 l-7 104 -78 -3 -79 -4 0 146 0 146 -74 0 -73 0 -6 68 c-4
37 -7 104 -7 150 0 76 -2 82 -17 74 -10 -5 -44 -13 -76 -17 l-58 -7 3 79 c3
71 5 78 23 76 11 -1 43 -3 72 -5 43 -2 53 -6 56 -23 3 -12 5 -7 6 12 l1 32
-77 3 -77 3 -3 128 -3 128 80 -6 80 -6 0 88 c0 139 -14 128 162 125 l150 -3
-3 58 -4 58 173 -1 172 -1 0 79 0 80 173 -3 172 -3 -3 76 c-2 42 -1 81 2 87 4
5 38 9 79 7 l72 -2 3 -88z m-1306 -210 c-3 -4 -24 -6 -48 -3 -27 3 -45 0 -48
-7 -2 -6 -5 8 -5 32 -1 31 3 42 14 42 8 0 15 9 15 20 0 18 20 26 53 21 4 0 8
5 8 12 1 6 5 -15 9 -48 4 -33 5 -64 2 -69z m1976 -79 c2 -32 7 -55 12 -52 5 3
75 7 155 9 l145 3 0 -56 c0 -60 -4 -70 -33 -86 -10 -5 -18 -14 -17 -18 0 -4
-6 -15 -15 -23 -8 -9 -15 -23 -15 -32 0 -28 -71 -39 -155 -26 -39 6 -64 12
-57 13 17 1 15 41 -2 55 -8 6 -17 29 -20 51 -3 22 -5 41 -6 43 0 1 -71 2 -157
3 -87 0 -189 4 -228 8 -40 5 -75 4 -81 -1 -19 -14 -314 -23 -314 -10 0 7 17
12 43 12 27 0 37 3 28 9 -9 6 9 12 54 20 38 7 82 19 98 27 16 9 38 14 48 11
10 -3 23 1 30 9 6 8 18 14 25 14 17 0 18 16 2 24 -7 3 -2 5 12 4 14 -1 39 5
55 12 17 7 39 16 50 21 11 5 79 10 150 12 211 5 190 11 193 -56z m-2150 -251
l3 -79 -172 5 c-182 5 -194 9 -186 55 3 15 -7 32 -29 54 -25 24 -31 35 -21 41
6 4 100 7 207 5 l195 -2 3 -79z m3200 76 l43 -7 -30 -29 c-24 -23 -31 -38 -31
-68 0 -33 -3 -38 -22 -38 -13 0 -94 -5 -180 -11 -87 -6 -169 -8 -183 -5 -25 6
-26 8 -23 79 l4 72 50 6 c69 8 320 9 372 1z m-586 -96 c8 -11 11 -219 4 -227
-2 -2 -35 -3 -74 -1 l-69 4 -6 91 c-4 51 -9 106 -12 122 l-7 30 79 -3 c43 -3
81 -9 85 -16z m-1482 -6 c0 -5 -7 -7 -15 -4 -8 4 -12 10 -9 15 6 11 24 2 24
-11z m778 -7 c-16 -2 -40 -2 -55 0 -16 2 -3 4 27 4 30 0 43 -2 28 -4z m-2488
-106 l0 -86 -92 -3 c-76 -2 -92 -6 -90 -18 2 -8 1 -45 -3 -82 l-7 -67 -244 6
-244 6 0 -81 0 -81 -121 -3 -122 -3 -1 -70 -1 -70 -95 -8 c-91 -8 -162 -5
-261 9 -45 6 -47 5 -43 -17 2 -13 5 -52 8 -86 l4 -63 -184 0 -184 0 0 -84 c0
-98 6 -104 84 -86 26 6 51 8 57 5 5 -3 6 1 3 9 -5 13 1 16 27 16 55 0 79 10
80 34 2 20 2 20 6 -1 3 -16 11 -23 26 -22 12 0 16 3 10 6 -7 2 -13 16 -13 29
0 17 6 24 20 24 11 0 20 6 20 14 0 8 6 16 14 19 10 4 12 0 9 -14 -3 -10 0 -19
6 -19 6 0 11 9 11 20 0 11 5 20 10 20 6 0 10 -9 10 -20 0 -13 7 -20 20 -20 14
0 20 -7 21 -22 0 -13 3 -18 5 -11 3 7 11 10 18 7 8 -3 16 5 20 20 3 14 11 26
16 26 11 0 13 -24 4 -69 l-6 -31 -159 0 -159 0 0 -80 0 -80 -174 0 -173 0 -6
-172 c-9 -239 -9 -2987 -1 -3175 l7 -153 66 0 c36 0 72 -4 79 -9 10 -6 13 -62
13 -256 l-1 -247 80 7 81 7 -8 -138 c-12 -223 -14 -208 27 -212 19 -2 38 -9
42 -15 4 -7 8 -47 8 -89 l0 -77 73 -3 72 -3 3 -167 2 -167 73 -3 72 -3 3 -40
c1 -22 5 -59 8 -82 l5 -43 70 0 69 0 0 -95 0 -95 80 0 80 0 0 -96 0 -96 83 3
82 4 5 -90 5 -90 78 -3 77 -3 0 -53 c0 -30 3 -68 7 -86 l6 -33 79 6 78 6 0
-85 0 -85 80 2 c44 1 83 0 86 -3 2 -3 7 -40 9 -83 l4 -78 80 2 80 2 3 -78 3
-78 140 0 140 0 6 -25 c4 -14 7 -51 8 -84 l1 -59 85 5 85 4 0 -83 0 -84 83 3
82 3 3 -77 3 -76 73 5 73 6 6 -36 c3 -20 3 -61 0 -92 l-6 -56 -81 3 -81 3 3
83 c2 60 0 82 -8 77 -6 -4 -46 -4 -88 0 l-77 7 3 69 4 69 -161 0 -161 0 0 80
0 80 -84 0 -83 0 0 32 c1 18 0 57 -1 86 l-2 52 -80 0 -80 0 0 75 0 75 -73 0
c-41 0 -109 3 -151 7 l-77 6 7 79 c8 89 19 80 -104 78 l-73 -1 2 93 2 93 -87
-4 -86 -3 5 28 c3 16 9 55 14 87 l8 57 -90 0 -90 0 7 88 7 87 -72 -3 c-76 -4
-92 4 -84 43 2 11 7 51 10 89 l7 68 -64 -7 c-34 -3 -71 -9 -80 -11 -10 -3 -19
3 -23 15 -7 23 13 149 26 157 5 3 9 10 9 16 0 8 -27 9 -87 5 -49 -4 -93 -3
-100 1 -8 5 -11 34 -10 87 1 44 0 103 -2 130 -3 28 -1 65 3 82 l8 33 -83 0
-82 0 7 38 c14 78 19 143 10 141 -5 -1 -33 -1 -62 0 l-54 1 4 80 c2 62 0 80
-11 80 -11 0 -12 19 -6 100 l7 101 -23 -5 c-125 -26 -145 -16 -135 66 7 63 12
585 5 592 -2 3 -43 6 -91 7 l-86 2 5 26 c7 32 6 -79 5 1266 -1 616 1 1202 5
1303 4 134 3 182 -5 182 -7 0 -12 -9 -12 -20 0 -13 -7 -20 -20 -20 -13 0 -20
7 -20 20 0 17 -7 20 -40 20 l-40 0 0 60 c0 53 2 60 20 60 13 0 20 7 20 20 0
13 7 20 20 20 19 0 20 7 20 120 0 113 -1 120 -20 120 -13 0 -20 7 -20 20 0 18
-7 20 -60 20 -47 0 -60 3 -60 15 0 8 -4 15 -10 15 -5 0 -11 21 -12 48 l-1 47
-7 -55 c-4 -33 -7 28 -8 157 l-2 212 137 3 138 3 -3 73 -3 72 95 0 95 0 3 83
3 82 110 -3 c61 -1 161 1 224 4 l113 6 -6 42 c-3 22 -9 59 -12 80 l-7 39 131
-6 c73 -3 157 -3 187 0 l54 6 3 71 3 71 169 3 168 2 -7 79 -7 78 168 -5 167
-5 -6 80 c-3 44 -4 82 -2 84 2 2 89 6 194 8 l191 3 0 -85z m4300 -8 l5 -84
173 4 172 3 0 -81 0 -81 154 0 154 0 6 -31 c3 -17 6 -51 6 -75 l0 -44 209 0
c239 0 221 8 221 -101 l0 -70 159 7 158 7 7 -66 c4 -37 5 -74 2 -84 -5 -17 4
-18 143 -15 171 4 161 10 161 -102 l0 -59 111 7 111 7 -6 -28 c-4 -16 -10 -43
-13 -61 -8 -51 -40 -66 -150 -70 -83 -4 -93 -6 -86 -21 13 -29 22 -973 21
-2241 -1 -685 -4 -1249 -7 -1255 -3 -5 -6 -25 -8 -45 -2 -19 -8 -52 -14 -74
l-10 -38 -60 4 -59 4 0 -173 0 -173 -32 0 c-27 0 -30 -2 -16 -12 17 -14 59
-128 52 -140 -3 -5 -41 -8 -86 -8 l-80 0 7 -94 c4 -55 3 -96 -2 -99 -5 -4 -6
-36 -2 -78 5 -40 6 -76 3 -81 -3 -4 -39 -8 -81 -8 l-76 0 8 -91 7 -90 -79 2
-78 2 0 -169 0 -169 -82 4 -83 3 0 -92 0 -93 -70 6 -70 6 0 -68 c0 -38 -3 -83
-6 -100 l-6 -31 -79 0 -78 0 -3 -92 -3 -92 -67 3 -67 2 -3 -83 -3 -83 -78 0
-77 0 0 -90 0 -90 -85 4 -85 3 0 -85 0 -86 -142 2 -142 2 3 -82 3 -83 -96 0
-95 0 6 -80 6 -80 -86 0 -85 0 5 -81 6 -81 -160 7 -160 7 9 -68 c4 -38 6 -75
3 -82 -6 -16 -161 -17 -171 -1 -4 7 -9 42 -12 79 l-4 67 32 7 c18 3 54 6 81 6
55 0 57 3 61 95 l3 50 78 3 c87 3 77 -9 81 107 1 39 4 49 16 47 8 -2 72 -1
143 3 l127 7 0 74 0 73 83 3 82 3 3 83 3 82 84 0 85 0 0 80 0 80 90 0 90 0 0
91 0 91 81 -4 80 -3 -2 90 -2 90 82 -4 81 -3 0 96 0 95 77 3 77 3 1 30 c1 17
2 58 3 93 l2 62 66 0 65 0 -3 86 -3 85 78 -2 c42 -1 79 0 81 2 2 2 1 77 -3
167 l-6 162 78 0 79 0 -4 89 -3 90 29 5 c16 3 47 6 70 6 l41 0 -3 175 -3 175
81 0 82 0 -7 250 -8 250 87 0 86 0 3 1783 c2 980 5 1793 8 1807 2 14 11 30 19
37 12 10 1 12 -60 13 -41 0 -85 3 -97 6 -14 4 -23 2 -23 -5 0 -7 4 -10 9 -7 5
3 5 -15 0 -41 -12 -65 -41 -93 -95 -93 -24 0 -46 5 -49 10 -3 6 -1 10 4 10 6
0 11 5 11 10 0 6 -5 9 -12 8 -16 -4 -26 67 -27 184 l-1 87 -157 3 -157 3 2 50
c2 28 5 62 8 78 l6 27 -171 0 c-94 0 -171 -2 -171 -5 0 -3 10 -9 22 -14 17 -6
6 -9 -41 -10 -35 -1 -67 -4 -72 -7 -5 -3 -9 -2 -8 3 2 4 -4 20 -11 36 -10 21
-11 30 -2 39 7 7 12 24 12 38 0 21 7 27 39 37 22 7 47 10 55 7 9 -3 16 -1 16
5 0 7 -28 11 -77 12 -43 1 -107 4 -143 8 l-65 6 -2 57 c-1 32 2 60 8 63 5 4 9
12 9 18 0 9 -63 12 -250 12 -137 0 -250 -3 -250 -7 0 -5 -18 -8 -40 -8 -36 0
-40 2 -40 25 0 14 11 37 25 50 25 26 45 32 45 15 0 -5 4 -10 9 -10 5 0 9 20 9
45 l0 44 -90 3 -90 3 -1 80 0 80 148 2 c81 1 150 5 153 8 17 17 28 -11 32 -86z
m-4100 19 c22 -84 32 -108 45 -108 16 0 31 -96 21 -135 -6 -24 -10 -26 -59
-23 l-52 3 0 135 c0 74 3 143 7 153 12 29 27 19 38 -25z m112 -90 c-9 -9 -12
-7 -12 12 0 19 3 21 12 12 9 -9 9 -15 0 -24z m33 12 c3 -5 1 -10 -4 -10 -6 0
-11 5 -11 10 0 6 2 10 4 10 3 0 8 -4 11 -10z m2701 -208 l1 -173 -84 3 -83 3
0 -90 c0 -49 -3 -141 -7 -202 l-6 -113 -69 0 -68 0 0 58 c0 64 6 77 35 85 12
3 7 5 -15 6 l-35 1 2 -152 c1 -103 -3 -155 -10 -162 -8 -7 -39 -9 -87 -6 l-75
5 -3 168 -2 167 83 0 84 0 -5 123 c-5 144 -8 141 103 130 l62 -6 6 48 c4 26 7
101 7 167 l0 119 83 -3 82 -3 1 -173z m945 -25 c-8 -8 -11 2 -10 34 l1 44 10
-34 c6 -23 6 -37 -1 -44z m-3630 -27 c4 -14 7 -44 8 -67 1 -35 4 -42 24 -45
21 -3 22 -9 28 -103 3 -55 6 -96 7 -91 1 5 8 4 15 -2 6 -6 30 -13 52 -17 93
-15 85 -4 85 -115 0 -93 -1 -100 -20 -100 -28 0 -122 37 -132 52 -4 7 -8 49
-8 93 0 51 -4 75 -9 66 -8 -12 -22 -13 -78 -5 l-68 9 1 38 c0 20 1 109 2 198
l2 160 42 -23 c26 -14 45 -33 49 -48z m3273 60 l31 0 3 -87 c2 -64 -2 -96 -13
-117 -19 -36 -19 -70 0 -90 8 -8 15 -32 15 -53 0 -39 0 -39 -42 -41 -24 -2
-50 -5 -59 -7 -37 -12 -49 16 -56 123 -5 88 -4 104 10 115 13 9 17 30 18 91
l1 78 30 -6 c17 -3 45 -6 62 -6z m-1610 -115 c29 -17 37 -167 29 -601 l-6
-402 -50 -6 c-27 -4 -54 -3 -59 2 -6 6 -12 229 -15 525 -7 575 -7 570 52 519
17 -15 40 -31 49 -37z m1963 3 c-3 -7 -5 -2 -5 12 0 14 2 19 5 13 2 -7 2 -19
0 -25z m628 -90 c-4 -24 -13 -50 -21 -59 -8 -9 -11 -19 -7 -22 3 -4 -18 -7
-47 -7 l-53 0 7 46 c3 26 6 55 6 65 0 16 8 19 61 19 l61 0 -7 -42z m-5002 -70
c4 -15 -1 -18 -26 -17 -18 0 -26 3 -19 6 6 2 12 10 12 17 0 20 28 15 33 -6z
m-190 -15 c-7 -2 -21 -2 -30 0 -10 3 -4 5 12 5 17 0 24 -2 18 -5z m5547 -89
c0 -22 25 -44 47 -42 10 0 32 0 48 -1 23 -1 27 -3 15 -11 -20 -13 -220 -13
-220 0 0 6 28 11 63 12 l62 1 -65 7 c-53 5 -57 7 -22 8 35 2 42 5 42 22 0 11
7 20 15 20 8 0 15 -7 15 -16z m-1442 -99 l3 -80 -38 -2 c-21 -1 -59 -4 -85 -8
l-47 -5 -3 90 -3 91 85 -3 85 -3 3 -80z m1594 -14 c-2 -27 1 -57 7 -67 6 -11
11 -14 11 -6 0 7 7 21 16 29 13 14 17 14 25 2 8 -12 11 -12 20 1 8 11 12 12
16 3 6 -15 43 -17 43 -3 0 6 9 10 20 10 13 0 20 -7 20 -20 0 -17 7 -20 45 -21
59 -2 62 -2 72 -13 4 -4 -12 -5 -37 -2 -28 5 -40 4 -32 -2 17 -11 -63 -22
-165 -22 l-73 0 0 93 c0 53 4 86 9 79 4 -7 6 -35 3 -61z m-6074 52 c-43 -2
-113 -2 -155 0 -43 1 -8 3 77 3 85 0 120 -2 78 -3z m5424 -75 c-6 -87 -7 -88
-65 -88 -64 0 -72 -6 -81 -52 -9 -52 -37 -68 -113 -68 -61 0 -63 -1 -63 -26 0
-27 -32 -46 -102 -59 -21 -4 -38 -11 -38 -16 0 -17 -89 -69 -119 -69 -21 0
-29 -4 -25 -13 15 -39 -98 -85 -179 -73 l-47 7 0 50 0 49 70 0 69 0 -2 38 -2
37 45 1 c25 0 62 1 84 2 l39 2 -7 40 -6 40 33 0 c19 0 62 3 97 7 l62 6 -4 49
-5 50 66 -3 c36 -1 85 1 109 5 l42 8 0 48 c0 47 1 48 38 58 20 5 53 10 72 11
l36 1 -4 -42z m-4889 13 c5 -5 11 -27 14 -49 l5 -40 72 -6 c114 -11 116 -12
116 -56 0 -22 4 -41 9 -44 4 -3 35 -8 67 -11 131 -13 127 -11 121 -56 l-5 -39
73 0 73 0 6 -35 7 -34 67 -3 67 -3 3 -52 3 -53 -59 0 c-44 0 -71 6 -108 26
-27 14 -51 29 -54 33 -3 4 -31 20 -63 34 -32 15 -71 37 -87 50 -15 13 -57 36
-93 52 -36 15 -67 35 -70 44 -4 16 -82 41 -128 41 -14 0 -19 7 -19 28 0 45
-24 69 -75 74 -25 3 -48 8 -51 11 -3 2 -9 28 -13 57 l-8 52 61 -7 c33 -3 65
-10 69 -14z m-413 -198 c0 -51 -3 -64 -19 -73 -11 -6 -88 -10 -179 -10 -157 0
-160 0 -166 23 -7 25 -8 112 -2 118 2 2 86 4 185 4 l181 0 0 -62z m5798 47
l153 0 -3 -61 -3 -60 -135 -6 c-74 -4 -147 -6 -163 -6 -27 0 -27 0 -21 -48 5
-39 4 -49 -8 -49 -8 0 -42 -11 -76 -25 -94 -38 -94 -38 -107 61 l-6 50 63 -4
c80 -5 95 9 104 97 6 57 9 62 28 57 12 -3 90 -6 174 -6z m-1608 -105 l0 -63
-65 -7 c-35 -4 -71 -5 -78 -2 -10 4 -15 27 -16 74 l-2 68 81 -3 80 -4 0 -63z
m-2612 -2 l-3 -68 -74 -3 c-41 -2 -78 1 -83 6 -5 5 -6 37 -2 71 l7 61 79 0 79
0 -3 -67z m-1429 -65 l54 3 -7 -43 c-4 -24 -9 -53 -13 -65 -5 -22 -2 -23 46
-23 l51 0 0 -87 c0 -49 3 -124 6 -168 l7 -80 -61 3 -60 4 9 -39 c5 -21 9 -57
9 -80 l0 -43 -54 0 c-52 0 -55 -1 -61 -30 -5 -24 -12 -30 -34 -30 -23 0 -29
-6 -37 -37 l-9 -38 -100 -3 c-55 -2 -133 0 -173 3 -65 6 -73 9 -78 31 -3 13
-7 24 -8 24 0 0 -26 -7 -56 -15 -30 -8 -56 -15 -57 -15 -2 0 -3 27 -3 59 l0
60 -57 -6 c-50 -5 -56 -4 -50 10 3 9 9 39 13 67 6 46 5 50 -14 50 -11 0 -32
-4 -46 -10 -33 -12 -33 -10 -40 188 -3 84 -11 163 -17 174 -11 20 -10 21 42
15 30 -4 63 -7 74 -7 19 0 20 -6 19 -191 0 -126 3 -192 10 -195 24 -9 259 -21
282 -15 24 6 24 7 -21 56 -54 60 -65 90 -39 110 26 19 15 26 -54 32 -54 5 -63
3 -96 -22 -20 -15 -36 -25 -36 -22 0 3 20 40 44 83 24 44 48 93 52 109 4 17
15 47 26 68 10 20 15 37 11 37 -5 0 -41 -9 -81 -20 -39 -11 -74 -20 -76 -20
-2 0 -7 21 -10 48 -4 26 -9 59 -12 75 l-6 27 97 0 c68 0 97 -4 100 -12 2 -7 7
-31 11 -53 4 -22 9 -32 11 -22 5 18 23 24 23 7 0 -6 -6 -21 -14 -33 -8 -12
-18 -45 -22 -73 -6 -51 -6 -52 26 -68 18 -9 34 -16 36 -16 2 0 4 19 6 43 l3
42 58 -2 c60 -2 123 -33 114 -57 -5 -11 35 -12 70 -1 15 5 -29 122 -53 140
-32 23 -12 36 26 17 27 -13 45 -36 80 -103 25 -47 68 -121 95 -164 48 -75 50
-77 56 -49 4 16 7 77 8 135 l1 106 -37 -1 c-31 -1 -37 3 -38 19 -4 56 -2 55
-61 55 l-56 0 7 48 c8 54 22 72 68 88 l32 11 5 -46 5 -46 54 3z m3384 -138
c-5 -31 -7 -32 -14 -12 -7 19 -16 22 -64 22 -42 0 -54 3 -49 13 6 9 5 9 -7 0
-11 -9 -108 -17 -166 -14 -9 1 -13 24 -13 81 l0 80 75 0 74 0 6 -37 c3 -21 12
-51 20 -68 l14 -30 0 28 c1 23 5 27 31 27 17 0 30 4 30 9 0 5 9 11 21 14 15 4
20 12 18 29 -2 13 1 30 6 38 12 19 27 -128 18 -180z m2638 86 l-3 -77 57 3 57
3 4 -149 c1 -83 6 -167 10 -189 l6 -40 -58 8 c-71 9 -71 8 -88 49 -8 19 -34
54 -58 80 -39 40 -50 46 -84 45 -55 -1 -76 -10 -64 -29 5 -8 10 -29 10 -47 0
-26 -9 -40 -50 -74 -27 -23 -50 -46 -50 -50 0 -24 176 -35 185 -11 3 7 25 12
59 12 40 0 57 4 64 16 14 24 30 -3 38 -65 l7 -54 -77 8 -77 7 7 -39 c5 -21 8
-51 9 -68 l0 -30 -230 -6 c-248 -6 -255 -5 -255 46 0 12 -9 32 -20 45 -11 13
-20 29 -20 37 0 10 -18 13 -69 13 l-70 0 10 32 c5 18 9 53 9 77 l0 44 -53 -6
-52 -7 0 178 0 177 57 -9 c54 -9 58 -12 64 -41 3 -17 4 -78 2 -135 -2 -63 1
-104 7 -106 14 -5 77 96 143 225 59 118 76 141 104 141 18 0 18 -1 0 -37 -11
-21 -22 -59 -25 -85 -6 -44 -5 -48 21 -60 24 -12 28 -21 35 -77 5 -43 4 -67
-3 -71 -13 -8 -3 -40 14 -41 6 -1 17 -2 25 -3 8 0 19 -17 24 -36 16 -62 37
-75 55 -35 25 54 5 125 -35 125 -19 0 -16 39 4 47 11 4 26 -5 48 -32 55 -65
76 -20 28 59 -31 49 -56 59 -110 44 -19 -5 -36 -8 -38 -6 -1 2 -6 22 -10 46
l-7 42 68 0 c72 0 104 -16 104 -51 0 -15 5 -17 33 -12 17 3 33 7 35 8 5 4 -38
116 -52 137 -18 25 -21 48 -6 48 13 0 98 -116 120 -165 27 -61 125 -218 138
-223 9 -3 11 33 9 137 l-2 140 -34 3 c-26 2 -38 10 -51 33 -14 25 -27 33 -80
45 -65 16 -82 33 -72 73 4 17 15 18 121 14 l116 -3 -4 -78z m-2294 -68 c-2
-13 -4 -3 -4 22 0 25 2 35 4 23 2 -13 2 -33 0 -45z m-668 -320 l2 -168 -80 0
-80 0 -6 -53 c-4 -29 -5 -64 -3 -78 3 -24 3 -24 -80 -20 l-84 3 4 -81 3 -81
-77 0 -78 0 0 73 c0 40 -5 78 -11 84 -7 7 -38 9 -88 6 l-77 -6 4 75 4 75 -82
6 c-46 4 -84 8 -86 10 -2 2 0 30 5 63 6 39 9 49 11 29 1 -18 4 -23 7 -12 7 27
26 20 21 -8 -4 -19 -1 -25 13 -25 27 0 34 -20 7 -21 -13 -1 2 -7 32 -13 75
-15 80 -20 80 -74 0 -36 3 -43 12 -34 16 16 31 15 25 0 -11 -31 13 -48 68 -48
34 0 55 -5 58 -12 5 -16 122 -17 136 -3 15 15 31 130 31 218 l0 77 80 0 80 0
0 85 0 85 65 0 65 0 2 78 1 77 7 -70 c4 -38 8 -145 9 -237z m-1481 207 l3 -77
-77 6 c-42 3 -78 7 -81 9 -2 2 0 36 3 74 l7 70 71 -3 71 -3 3 -76z m501 -32
l1 -33 -70 0 c-38 0 -70 2 -70 5 0 13 50 55 65 55 8 0 15 9 15 19 0 11 6 22
13 25 9 5 9 7 -2 12 -10 5 -8 10 10 20 23 12 24 11 31 -29 3 -23 7 -57 7 -74z
m904 110 c-7 -2 -21 -2 -30 0 -10 3 -4 5 12 5 17 0 24 -2 18 -5z m897 -73 l0
-70 -80 0 -80 0 0 70 0 70 80 0 80 0 0 -70z m538 55 c12 -12 -40 -50 -148
-109 -82 -44 -84 -42 -84 48 l-1 79 114 -6 c63 -4 116 -9 119 -12z m-1042
-113 c-11 -10 -13 3 -7 48 l6 45 3 -44 c2 -23 1 -46 -2 -49z m-1459 -4 c-3 -7
-5 -2 -5 12 0 14 2 19 5 13 2 -7 2 -19 0 -25z m431 -18 c31 0 32 -1 33 -47 1
-39 2 -43 9 -23 8 24 8 24 9 -6 1 -24 -4 -33 -20 -37 -14 -4 -20 -11 -16 -21
7 -17 -39 -30 -89 -24 l-29 3 -3 84 -3 84 38 -7 c21 -3 53 -6 71 -6z m376 -22
c3 -13 6 -44 6 -70 l0 -48 -75 0 c-73 0 -75 1 -75 25 0 14 5 25 10 25 6 0 10
-4 10 -10 0 -5 5 -10 10 -10 6 0 10 10 10 23 0 29 17 51 55 71 39 20 42 20 49
-6z m885 8 c8 -10 9 -16 1 -21 -5 -3 -10 -23 -10 -45 0 -27 -7 -44 -25 -61
-22 -21 -25 -32 -25 -98 l0 -74 84 7 c52 4 87 2 91 -4 3 -5 3 -37 -1 -70 l-7
-60 -83 0 -84 0 0 -76 0 -76 -82 3 -83 4 -3 -78 -3 -78 -82 3 -82 3 -3 -73 -3
-73 -62 3 -62 3 0 57 c0 32 -5 62 -12 69 -11 10 -13 -2 -13 -64 l0 -77 -82 0
-83 0 3 67 3 68 -75 -3 -76 -4 0 49 c0 26 -3 58 -6 71 -6 21 -4 22 74 22 l79
0 5 -50 c3 -28 7 -52 9 -54 2 -2 34 -2 72 1 l67 6 0 66 0 66 -75 -3 -75 -4 0
66 0 66 79 0 c74 0 80 -2 87 -22 4 -13 7 -30 5 -40 -1 -9 2 -19 8 -22 5 -3 7
3 4 14 -3 12 0 20 7 20 7 0 10 8 7 20 -4 16 0 20 21 20 30 0 22 12 -11 16 -12
1 -25 3 -29 3 -5 1 -8 33 -8 71 l0 70 123 0 c67 0 139 3 160 6 l37 7 0 68 0
69 68 0 c37 0 73 4 79 8 7 4 15 40 19 80 6 59 10 72 24 72 10 0 23 -6 29 -14z
m66 -6 c7 -12 -2 -12 -30 0 -19 8 -19 9 2 9 12 1 25 -3 28 -9z m-2677 -104
c20 -19 53 -42 73 -52 30 -13 40 -25 52 -60 l14 -44 -77 0 -77 0 2 55 c1 30
-1 53 -3 50 -3 -2 -13 0 -23 6 -25 13 -26 79 -2 79 3 0 21 -16 41 -34z m3342
-21 l0 -45 -44 0 -45 0 -3 -42 c-3 -42 -4 -43 -40 -46 -28 -2 -38 -8 -38 -20
0 -15 -2 -15 -10 -2 -5 8 -14 16 -20 16 -30 4 -33 7 -11 13 16 4 28 18 36 40
11 33 47 57 66 46 4 -3 15 10 23 29 15 36 39 55 69 56 14 0 17 -9 17 -45z
m-964 -2 c-11 -11 -17 4 -9 23 7 18 8 18 11 1 2 -10 1 -21 -2 -24z m-1348 10
c-21 -2 -57 -2 -80 0 -24 2 -7 4 37 4 44 0 63 -2 43 -4z m-134 -35 c3 -13 6
-49 6 -80 l0 -58 73 -2 c39 -1 114 0 165 1 l92 3 0 -71 0 -71 -75 0 -74 0 4
-27 c2 -16 7 -45 10 -65 l6 -38 69 0 70 0 0 60 0 60 75 0 75 0 0 -70 0 -70
-69 0 -68 0 -2 -59 -2 -59 71 -4 c39 -2 74 -2 78 -1 4 2 5 25 4 53 l-4 50 77
0 c67 0 76 -2 73 -17 -2 -11 -14 -19 -28 -21 -66 -7 -89 -14 -95 -30 -4 -9
-10 -57 -14 -107 l-6 -90 -120 -3 c-66 -1 -139 0 -162 4 l-43 5 0 76 0 75 -87
-3 -88 -4 3 73 4 72 -86 0 c-62 0 -86 4 -87 13 -1 6 0 39 1 73 l2 61 -75 -5
c-90 -5 -112 5 -122 55 -19 92 -24 87 89 93 l101 5 0 67 0 67 65 4 c36 2 70 4
76 5 7 1 14 -8 18 -20z m2176 -112 c0 -3 -4 -8 -10 -11 -5 -3 -10 -1 -10 4 0
6 5 11 10 11 6 0 10 -2 10 -4z m-13 -58 c-3 -7 -5 -2 -5 12 0 14 2 19 5 13 2
-7 2 -19 0 -25z m1041 26 l52 -7 0 -41 c0 -54 -10 -67 -67 -87 -26 -10 -84
-31 -128 -46 -44 -16 -85 -31 -90 -35 -23 -14 -222 -68 -305 -84 -65 -11 -115
-29 -178 -61 -149 -76 -198 -93 -274 -93 l-68 0 0 68 0 69 103 6 c141 9 189
24 199 64 9 35 28 43 103 43 62 0 214 36 235 55 8 8 42 16 75 18 l60 5 3 66 3
66 112 0 c62 0 136 -3 165 -6z m-4666 -10 c20 -4 30 -14 35 -35 5 -16 12 -29
16 -29 10 1 27 -17 54 -56 19 -27 30 -32 102 -43 127 -19 177 -37 219 -80 37
-37 38 -38 153 -49 63 -7 141 -12 172 -12 l57 0 0 -70 0 -70 -79 0 c-71 0 -80
2 -86 20 -4 11 -10 18 -15 15 -10 -6 -110 28 -185 64 -33 16 -123 48 -200 71
-77 22 -165 53 -195 66 -84 39 -237 84 -286 84 l-44 0 0 49 c0 79 -4 77 133
79 67 1 134 0 149 -4z m1091 -111 c-13 -2 -35 -2 -50 0 -16 2 -5 4 22 4 28 0
40 -2 28 -4z m-1208 -189 c21 -8 60 -37 87 -64 43 -43 48 -51 38 -69 -6 -12
-19 -21 -29 -21 -35 0 -148 108 -156 149 -5 25 9 27 60 5z m-145 -189 c5 -67
6 -70 32 -73 15 -2 36 2 47 7 25 14 27 10 36 -63 l7 -58 -59 6 c-32 3 -110 11
-173 17 -63 6 -134 14 -157 19 -47 8 -53 0 -53 -75 l0 -40 -197 0 c-109 0
-241 -3 -293 -8 l-95 -8 63 61 c54 52 66 59 79 48 13 -11 20 -8 43 20 l26 32
97 0 97 0 0 69 c0 39 4 72 9 75 4 3 34 8 65 12 l56 7 0 -72 c0 -64 2 -72 18
-67 9 2 47 8 84 11 l66 7 21 55 c12 30 21 61 21 68 0 20 18 24 90 22 l65 -2 5
-70z m1708 -10 c-3 -49 -1 -55 19 -60 17 -4 22 -14 25 -48 2 -32 7 -41 18 -37
8 2 40 4 70 5 l55 0 6 -60 c3 -33 3 -99 1 -148 l-5 -87 -126 5 c-69 4 -141 8
-159 11 l-32 5 6 69 7 70 -56 0 -55 0 -4 143 c-4 166 0 207 16 201 6 -2 54 0
106 4 111 9 113 7 108 -73z m3427 73 c2 -7 11 -38 19 -69 10 -34 23 -60 33
-64 10 -4 63 -8 118 -11 55 -2 93 -1 84 2 -11 3 -15 18 -14 54 1 45 -1 51 -26
62 -37 17 -27 28 25 28 l43 0 5 -71 c4 -45 11 -75 19 -80 8 -5 43 -9 78 -9 44
0 73 -6 95 -19 17 -10 52 -22 77 -25 48 -7 81 -32 86 -64 2 -15 -4 -17 -32
-14 -27 3 -35 1 -35 -12 0 -14 -18 -16 -142 -16 -79 0 -173 -3 -210 -7 l-68
-6 -1 49 c-2 55 -16 125 -18 87 -1 -28 -41 -39 -173 -47 l-97 -5 -5 32 c-3 18
-5 39 -5 47 0 8 -9 50 -19 93 l-19 77 89 0 c62 0 90 -4 93 -12z m-1756 -93
c-1 -53 1 -99 5 -102 3 -3 6 23 6 60 0 82 6 97 39 98 26 1 26 1 -4 9 -29 7
-29 8 -4 9 45 2 52 -18 57 -173 l5 -143 -57 -7 -56 -7 0 -75 0 -74 -153 0
-154 0 -6 108 c-3 59 -3 126 0 148 l5 41 30 -14 c16 -8 46 -17 68 -20 l38 -5
6 53 c4 30 9 84 12 122 l6 67 79 0 79 0 -1 -95z m-2986 55 c14 0 6 -35 -12
-57 -14 -17 -30 -23 -58 -23 -48 0 -63 14 -63 57 0 44 22 55 79 37 25 -8 49
-14 54 -14z m835 -53 l-3 -69 -72 -3 -73 -2 0 71 0 71 75 1 76 1 -3 -70z
m2633 52 c5 -8 9 -40 9 -71 0 -67 -7 -71 -101 -66 -62 3 -66 11 -54 106 l7 55
65 -6 c39 -3 69 -10 74 -18z m1034 -45 c-14 -27 -14 -29 6 -32 22 -4 24 -42 1
-50 -8 -2 -10 3 -6 15 3 10 -3 6 -12 -9 -14 -21 -27 -28 -52 -28 l-32 0 21 41
c19 38 78 103 86 95 2 -2 -3 -16 -12 -32z m-2473 -75 c5 -3 3 -9 -6 -12 -12
-5 -16 0 -15 21 0 16 3 21 6 12 3 -8 10 -18 15 -21z m3393 -119 c3 -6 -1 -7
-9 -4 -18 7 -21 14 -7 14 6 0 13 -4 16 -10z m-3251 -72 c3 -13 6 -47 6 -77 l0
-54 71 7 c48 5 75 4 84 -4 9 -7 43 -10 90 -8 l76 3 -3 -74 -3 -74 -76 2 -77 2
2 -141 c2 -91 -1 -143 -8 -148 -6 -4 -117 -8 -247 -9 l-237 -2 -7 145 -7 144
-79 0 -79 0 0 74 0 74 154 7 154 7 6 30 c3 17 6 47 6 68 0 20 3 40 7 43 3 4
41 7 84 7 71 0 77 -2 83 -22z m-1174 -78 l0 -90 -70 0 -70 0 0 90 0 90 70 0
70 0 0 -90z m2312 6 l3 -75 -70 -3 c-38 -2 -71 -3 -73 -2 -2 1 -6 36 -9 78
l-6 76 76 0 75 0 4 -74z m1246 -5 c18 -6 46 -24 61 -40 23 -24 38 -31 68 -31
21 -1 49 -7 63 -15 14 -8 39 -14 56 -15 21 0 40 -10 64 -35 28 -29 41 -35 77
-35 50 0 56 -9 68 -97 l7 -52 144 6 144 6 1 -79 c1 -43 3 -107 4 -141 2 -35 0
-65 -4 -67 -3 -3 -35 -8 -70 -12 l-64 -7 6 62 5 61 -68 0 c-97 0 -98 1 -106
81 l-7 70 -41 -2 c-45 -2 -116 33 -116 56 0 18 -94 29 -174 21 l-61 -6 3 69 4
70 -34 -9 c-18 -6 -57 -10 -85 -10 -50 0 -58 5 -54 32 0 4 2 35 2 68 l2 60 36
0 c20 0 51 -4 69 -9z m-3378 -132 c0 -48 3 -59 13 -51 6 5 43 13 80 17 l68 7
-3 -44 -3 -43 -77 -3 c-69 -3 -78 -1 -79 15 0 11 -3 13 -6 6 -3 -9 -29 -13
-78 -13 l-73 0 -7 71 c-4 39 -3 75 1 79 5 5 36 11 69 13 33 2 68 4 78 5 14 2
17 -7 17 -59z m1968 -6 l-3 -58 -70 0 c-62 0 -71 -2 -75 -20 -5 -18 -14 -20
-80 -20 l-75 0 -3 33 -3 32 81 0 82 0 -4 45 -3 45 78 0 78 0 -3 -57z m-3568
39 c0 -4 20 -14 45 -21 59 -17 57 -27 -5 -23 l-50 4 0 -66 0 -66 -80 0 -79 0
-6 -34 -7 -34 -66 6 c-92 7 -96 11 -88 100 7 82 13 99 29 83 6 -6 39 -11 74
-11 l63 0 0 35 0 35 85 0 c47 0 85 -4 85 -8z m4849 -7 c2 -2 -1 -21 -6 -42
l-9 -38 -174 -2 c-96 -1 -269 1 -383 4 l-208 5 5 30 c2 16 8 33 11 36 14 14
749 20 764 7z m-4323 -5 c255 0 294 -2 294 -15 0 -8 -9 -15 -19 -15 -11 0 -22
-8 -25 -18 -10 -32 -59 -42 -212 -47 -82 -3 -202 -10 -268 -15 -65 -6 -121 -9
-124 -5 -10 10 -32 80 -32 104 0 23 2 23 46 17 26 -3 179 -6 340 -6z m-1026
-46 c0 -21 -51 -69 -99 -93 -36 -18 -62 -39 -69 -56 -12 -26 -15 -27 -81 -23
l-69 3 -6 -35 c-3 -19 -6 -52 -6 -72 0 -45 -17 -52 -95 -43 -33 5 -60 3 -68
-3 -6 -6 -34 -13 -62 -17 -27 -4 -60 -11 -71 -16 -21 -7 -21 -6 -17 59 3 37 6
72 8 78 2 6 30 15 62 19 139 18 219 38 215 54 -1 7 9 26 23 43 14 16 25 37 25
47 0 14 21 21 128 38 138 22 182 26 182 17z m6302 -47 c12 -8 41 -20 63 -27
60 -19 68 -28 62 -77 l-5 -43 79 0 c44 0 79 -4 79 -8 0 -7 60 -47 70 -46 24 3
40 -13 46 -43 9 -48 -6 -55 -95 -49 -41 3 -96 6 -123 6 -46 0 -48 1 -48 29 0
84 -11 96 -129 130 -52 16 -56 20 -61 52 -5 32 -7 34 -47 36 -44 2 -87 24 -97
50 -6 14 4 15 88 10 57 -3 103 -11 118 -20z m-2552 -95 l0 -69 -62 9 c-35 5
-70 9 -78 11 -12 2 -16 -14 -18 -80 l-3 -83 -57 0 c-102 0 -102 1 -102 90 l0
77 87 7 c98 8 113 19 106 73 l-5 33 66 0 66 0 0 -68z m-1318 6 l3 -53 78 -3
77 -3 0 -73 0 -73 -37 -7 c-21 -3 -57 -6 -80 -6 l-43 0 0 71 0 71 -82 -3 -83
-4 -3 68 -3 67 85 0 85 0 3 -52z m-2283 -27 c18 -12 9 -130 -11 -142 -7 -5
-43 -9 -80 -9 l-68 0 0 -52 c0 -78 -4 -81 -94 -73 -87 8 -88 10 -61 99 8 27
15 78 15 114 0 47 3 63 13 59 6 -2 21 -1 32 4 28 11 237 11 254 0z m5454 -131
l57 -13 0 -67 c0 -37 -3 -88 -6 -114 l-7 -46 -36 5 c-80 13 -81 14 -81 44 0
53 -4 56 -81 53 -91 -5 -96 -2 -91 43 3 26 7 33 13 24 6 -10 9 -11 9 -1 0 7
13 12 29 12 16 0 37 7 46 16 9 9 25 14 35 11 16 -4 20 0 20 17 0 26 9 38 24
33 6 -3 37 -10 69 -17z m-4980 -23 c35 -20 37 -23 37 -70 l0 -48 -70 2 c-39 1
-73 -1 -77 -4 -3 -4 -42 -7 -85 -7 l-78 0 0 28 c0 15 -3 51 -7 81 l-6 53 124
-7 c97 -6 132 -12 162 -28z m-312 -202 c-2 -42 2 -62 14 -75 14 -15 16 -31 12
-75 -8 -82 -29 -101 -122 -106 l-49 -3 2 109 c1 61 5 133 8 160 l6 50 66 -2
66 -1 -3 -57z m5523 35 c34 -20 56 -39 60 -54 14 -56 27 -319 17 -329 -8 -8
-11 -5 -11 10 0 24 -15 38 -52 47 -21 5 -28 13 -28 29 0 35 -19 47 -77 47
l-53 0 0 70 c0 39 3 69 8 69 4 -1 18 -1 30 0 23 1 24 4 22 64 -1 34 -2 65 -1
70 2 14 32 6 85 -23z m-2734 11 c0 -10 -126 -9 -136 2 -4 4 25 7 64 7 40 0 72
-4 72 -9z m3320 -136 c0 -29 -5 -37 -27 -46 -16 -6 -36 -15 -45 -20 -31 -16
-38 -10 -38 34 0 38 3 44 28 54 15 6 39 11 55 12 24 1 27 -2 27 -34z m-4172
-72 c3 -57 9 -54 -100 -68 l-48 -6 0 65 0 65 73 -2 72 -2 3 -52z m1514 13 c-6
-48 -12 -46 -12 5 0 22 4 38 8 35 4 -3 6 -21 4 -40z m-2297 -8 c-1 -24 -3 -46
-4 -50 -1 -4 -27 -12 -58 -18 -32 -6 -76 -16 -98 -21 -57 -14 -247 -27 -264
-19 -11 6 -7 12 15 26 16 9 34 24 41 32 12 15 97 39 153 44 19 1 38 7 42 13 6
8 92 26 165 34 8 1 11 -13 8 -41z m3198 18 c62 -15 86 -36 87 -76 0 -20 -2
-22 -11 -10 -8 12 -9 11 -4 -6 7 -26 -17 -39 -46 -24 -11 6 -25 8 -31 4 -7 -4
-8 -3 -4 4 5 8 -1 12 -16 13 -23 1 -23 1 2 10 20 7 17 7 -13 3 -49 -7 -67 8
-67 57 0 45 8 47 103 25z m-5035 -23 c32 -44 -8 -87 -75 -81 l-38 3 -3 54 -3
54 53 -6 c33 -4 58 -13 66 -24z m6936 -45 c12 -83 7 -90 -61 -86 l-58 3 -3 55
c-2 30 -8 58 -15 62 -19 12 33 27 83 25 l45 -2 9 -57z m-6554 -153 l0 -185
-88 0 -87 0 3 113 c2 61 7 125 13 141 5 16 9 41 9 56 0 24 5 28 63 42 34 9 68
16 75 17 9 1 12 -42 12 -184z m6165 98 l70 -77 5 -101 5 -100 73 -3 c60 -2 72
-6 72 -20 0 -9 3 -81 7 -159 l6 -143 -77 0 -77 0 2 93 c0 50 -1 107 -3 125 -3
17 -5 46 -6 62 l-2 30 -70 0 c-48 0 -72 4 -75 13 -4 12 -27 240 -31 307 -4 73
15 68 101 -27z m-1385 7 c0 -5 -10 -10 -22 -9 -22 0 -22 1 -3 9 11 5 21 9 23
9 1 1 2 -3 2 -9z m881 -35 c3 -16 12 -61 19 -98 12 -66 12 -69 -10 -92 -13
-14 -39 -30 -59 -36 -20 -6 -46 -21 -59 -32 -35 -33 -42 -10 -42 145 l0 137
33 4 c17 2 50 4 71 3 36 -1 41 -4 47 -31z m-5163 11 c7 -8 14 -276 7 -276 -20
0 -145 94 -151 113 -4 12 -7 38 -5 57 1 27 -1 31 -8 20 -6 -8 -11 -24 -11 -35
0 -17 -1 -18 -16 -4 -12 13 -13 20 -3 42 7 15 16 27 20 27 4 0 11 10 15 23 13
44 24 50 89 42 33 -3 61 -8 63 -9z m2189 -83 c-9 -150 -44 -206 -96 -154 -19
19 -21 33 -21 131 l0 110 61 0 62 0 -6 -87z m729 62 c9 -38 -1 -228 -12 -232
-6 -2 -28 19 -48 47 -23 31 -43 50 -56 50 -18 0 -20 7 -20 80 l0 80 65 -3 c56
-2 66 -5 71 -22z m3276 -15 c26 -32 24 -70 -4 -70 -13 0 -47 -3 -75 -6 l-53
-7 0 30 c0 17 3 44 6 60 6 29 6 29 56 23 36 -5 57 -14 70 -30z m-7212 -37 l0
-43 -44 0 c-24 0 -58 3 -75 6 -27 6 -31 10 -31 40 0 32 2 34 34 34 18 0 49 6
67 14 41 17 49 9 49 -51z m4277 10 c-3 -10 -5 -4 -5 12 0 17 2 24 5 18 2 -7 2
-21 0 -30z m143 2 c0 -14 -4 -25 -9 -25 -4 0 -6 11 -3 25 2 14 6 25 8 25 2 0
4 -11 4 -25z m-97 -12 c-7 -2 -19 -2 -25 0 -7 3 -2 5 12 5 14 0 19 -2 13 -5z
m-29 -19 c10 -4 16 -18 16 -41 0 -41 37 -83 75 -83 16 0 25 -6 25 -15 0 -12
-14 -15 -70 -15 l-70 0 0 80 c0 44 2 80 4 80 2 0 11 -3 20 -6z m1956 -43 c-11
-22 -30 -28 -30 -11 0 6 4 10 9 10 5 0 12 10 16 23 3 12 9 17 11 10 3 -7 0
-21 -6 -32z m-3606 -86 c7 -7 21 -15 32 -18 10 -2 2 -5 -18 -6 l-38 -1 1 48
c2 32 3 38 6 18 3 -16 10 -35 17 -41z m-1909 -15 c11 -9 34 -22 52 -29 18 -7
54 -34 80 -60 28 -27 69 -55 96 -65 27 -10 50 -23 52 -30 2 -6 6 -45 8 -88 l5
-76 -36 25 c-65 43 -215 111 -264 118 l-48 7 0 77 c0 42 -3 93 -7 115 -6 37
-5 38 18 31 13 -4 33 -15 44 -25z m5675 -54 c0 -78 -12 -120 -23 -79 -3 12 -5
10 -6 -7 -2 -42 -27 -67 -88 -86 -32 -9 -101 -41 -154 -71 -54 -29 -100 -53
-103 -53 -3 0 -6 35 -6 79 0 86 3 91 64 111 21 7 56 30 78 51 21 21 59 45 84
55 34 13 44 22 44 40 0 24 33 42 83 43 l27 1 0 -84z m-3470 -116 l0 -160 -42
0 c-24 0 -60 3 -80 6 l-38 7 0 86 c0 47 3 116 7 154 l6 67 73 0 74 0 0 -160z
m1304 89 c3 -34 6 -102 6 -150 l0 -89 -69 0 c-83 0 -81 -6 -81 173 l0 127 69
0 68 0 7 -61z m-3941 45 c35 -6 38 -9 33 -33 -3 -14 -7 -81 -8 -149 -3 -140
-1 -136 -94 -130 l-49 3 -2 158 -2 157 42 0 c23 0 59 -3 80 -6z m3282 0 c-46
-7 -125 -8 -125 -1 0 4 33 6 73 6 39 -1 63 -3 52 -5z m4 -36 c5 -13 10 -210
10 -439 l1 -416 -37 -7 c-21 -3 -56 -6 -78 -6 l-40 0 6 407 c3 225 6 408 7
408 1 0 21 0 44 0 38 0 42 2 43 26 3 50 29 66 44 27z m-122 -20 c-3 -7 -5 -2
-5 12 0 14 2 19 5 13 2 -7 2 -19 0 -25z m456 -153 c-3 -38 -11 -73 -17 -77 -6
-4 -36 -8 -66 -8 l-55 0 0 80 0 79 72 -2 73 -2 -7 -70z m-683 -7 l0 -68 -59 0
-58 0 -7 46 c-13 96 -14 93 59 91 l65 -2 0 -67z m3287 -103 l1 -165 -69 0 -69
0 0 99 0 100 32 3 c32 3 32 4 30 49 -4 54 5 64 68 78 3 0 6 -73 7 -164z
m-5897 135 l38 0 8 -87 c4 -49 8 -122 8 -163 1 -54 5 -75 14 -74 6 1 37 2 67
3 l54 1 3 85 3 85 60 -40 c32 -22 72 -42 87 -45 15 -4 30 -10 32 -13 2 -4 7
-55 11 -114 l7 -108 -27 0 c-28 0 -79 23 -108 49 -12 10 -53 19 -110 26 -90
10 -90 10 -94 40 -3 16 -6 31 -7 33 -2 2 -36 6 -75 9 l-71 6 0 160 0 160 31
-7 c17 -3 49 -6 69 -6z m4105 -167 c-6 -68 -8 -72 -33 -77 -15 -2 -45 -4 -67
-3 -40 2 -40 2 -43 47 -2 24 -1 59 3 76 5 29 10 32 50 38 24 4 54 16 67 26 23
18 23 18 26 -8 2 -15 1 -59 -3 -99z m-1637 -16 c3 -88 8 -83 -90 -91 l-68 -7
0 75 c0 109 0 108 84 104 l71 -5 3 -76z m996 37 c3 -26 6 -64 6 -86 l0 -39
-77 3 -78 3 -3 77 -3 77 43 4 c111 10 105 12 112 -39z m-3986 11 l52 -7 0
-109 0 -109 -54 0 c-88 0 -86 -4 -86 127 0 104 2 114 18 109 9 -2 41 -8 70
-11z m6897 -15 l54 0 5 -42 c3 -24 8 -73 11 -110 l6 -68 -76 0 -75 0 0 48 c0
26 -3 78 -7 116 -6 63 -5 69 11 63 10 -4 42 -7 71 -7z m-751 -26 c3 -9 6 -45
6 -81 l0 -65 63 4 62 3 3 -52 3 -53 -51 0 c-38 0 -54 5 -67 20 -22 25 -38 25
-71 1 -31 -22 -154 -82 -158 -78 -2 2 -5 54 -6 115 l-3 112 95 44 c108 50 116
52 124 30z m-2948 -132 c6 -19 16 -37 23 -41 7 -5 11 -12 9 -17 -1 -4 12 -19
31 -31 l34 -23 -152 0 -151 0 0 68 c0 38 3 72 7 76 4 4 48 5 98 4 l90 -3 11
-33z m626 -33 c2 -39 1 -73 -1 -75 -2 -2 -42 -4 -88 -4 l-83 0 0 69 0 70 38 4
c20 2 58 4 84 5 l46 2 4 -71z m2801 4 c4 -38 7 -105 7 -150 l0 -83 -75 0 -76
0 5 33 c3 17 8 71 11 120 8 111 26 135 111 146 7 0 14 -26 17 -66z m-1816 -10
c-2 -16 -4 -5 -4 22 0 28 2 40 4 28 2 -13 2 -35 0 -50z m-4543 35 c-5 -8 -2
-9 9 -5 10 3 17 2 17 -2 0 -5 18 -8 40 -7 29 1 40 -3 41 -14 2 -57 1 -211 -2
-214 -2 -2 -34 -6 -71 -8 l-66 -4 4 91 c7 127 14 175 25 175 6 0 7 -5 3 -12z
m3920 -116 c-6 -4 -14 -14 -17 -22 -4 -10 -6 -8 -6 8 -1 15 5 22 17 22 10 0
13 -3 6 -8z m292 -39 c-4 -27 -9 -90 -13 -140 l-6 -93 -59 0 c-42 0 -64 -5
-76 -16 -14 -14 -31 -16 -112 -10 -52 3 -123 6 -157 6 l-63 0 0 48 c0 26 5 53
12 60 9 9 9 12 0 12 -7 0 -12 5 -12 10 0 6 29 10 66 10 41 0 63 -4 59 -10 -3
-5 -2 -10 2 -10 17 0 33 24 33 51 0 24 4 27 49 31 67 7 101 30 101 68 l0 30
91 0 92 0 -7 -47z m1914 -50 c2 -27 4 -84 5 -128 l0 -80 -37 3 c-37 3 -38 3
-38 -29 0 -19 -6 -57 -12 -86 -11 -47 -16 -53 -38 -53 -64 0 -102 -13 -111
-37 -5 -13 -17 -26 -26 -29 -27 -9 -87 -36 -198 -89 -55 -26 -119 -50 -142
-53 l-43 -5 0 79 c1 49 6 85 14 96 7 10 40 23 76 30 76 15 77 17 87 180 l6
107 60 20 c32 11 69 31 81 43 16 18 44 27 121 41 55 10 116 22 135 26 19 5 40
9 46 10 5 0 12 -20 14 -46z m580 17 c0 -11 -4 -20 -9 -20 -5 0 -7 9 -4 20 3
11 7 20 9 20 2 0 4 -9 4 -20z m-6305 -24 c79 -19 104 -30 121 -51 15 -19 34
-28 65 -32 24 -3 47 -11 51 -16 3 -6 10 -37 13 -69 l7 -58 52 0 c29 0 57 -5
64 -12 7 -7 12 -43 12 -89 0 -43 5 -81 10 -84 6 -3 10 -42 10 -86 0 -93 6 -92
-115 -34 -73 34 -141 60 -187 69 -21 5 -27 13 -33 45 -6 35 -10 39 -43 45 -20
3 -51 6 -69 6 -60 0 -63 5 -63 91 l0 79 -60 0 c-70 0 -68 -4 -72 133 l-3 87
70 0 c40 0 113 -10 170 -24z m-1374 -69 c-4 -61 -11 -59 -11 3 0 29 3 50 7 46
4 -4 6 -26 4 -49z m789 -16 c0 -22 7 -31 31 -41 17 -8 43 -13 58 -13 l26 0 3
-109 3 -108 -65 0 -66 0 0 43 c0 23 -3 93 -7 156 -5 86 -3 112 5 107 7 -4 12
-20 12 -35z m6710 -39 c3 -13 3 -61 -1 -107 -7 -105 -21 -125 -89 -125 -34 0
-50 4 -54 16 -3 9 -6 67 -6 130 l0 115 72 -3 c66 -3 73 -5 78 -26z m-3470
-114 c0 -29 -3 -70 -6 -90 l-7 -38 -68 0 -69 0 0 69 0 68 68 21 c37 11 70 21
75 21 4 1 7 -23 7 -51z m248 27 c17 -14 44 -28 62 -32 l32 -6 -6 -86 c-4 -47
-9 -103 -12 -123 l-6 -38 -59 0 -59 0 0 44 0 43 63 10 62 10 -67 2 -68 1 0 33
c0 17 -3 62 -7 100 -6 63 -5 67 15 67 11 0 34 -11 50 -25z m-3223 -75 c-3 -5
-12 -10 -18 -10 -7 0 -6 4 3 10 19 12 23 12 15 0z m-26 -90 c23 0 44 -61 39
-115 -3 -35 -7 -41 -33 -47 -16 -3 -33 -4 -37 -2 -10 7 -10 178 0 188 4 4 8 1
10 -8 2 -9 11 -16 21 -16z m4191 1 c0 -5 -7 -11 -15 -15 -9 -3 -15 0 -15 9 0
8 7 15 15 15 8 0 15 -4 15 -9z m1950 -67 c0 -57 -2 -64 -20 -64 -15 0 -20 -7
-20 -25 0 -14 4 -25 8 -25 5 0 7 -13 4 -30 -4 -26 -8 -30 -36 -30 -52 0 -54 6
-55 130 l-1 115 60 -3 60 -4 0 -64z m-3174 42 c1 -1 5 -25 9 -53 l7 -53 -61 0
-61 0 0 63 0 64 53 -11 c28 -5 53 -10 53 -10z m869 -61 c4 -38 5 -95 3 -125
l-3 -55 -75 -1 -75 -1 -3 -32 -3 -32 -162 7 c-89 3 -165 8 -169 11 -5 2 -8 40
-8 83 l0 79 83 3 82 3 3 62 3 62 52 3 c29 2 100 3 159 3 l107 0 6 -70z m332
-7 c-2 -13 -4 -3 -4 22 0 25 2 35 4 23 2 -13 2 -33 0 -45z m452 -75 c8 -15 11
-15 12 -3 3 28 17 -45 18 -93 l1 -48 -60 2 c-33 1 -63 -1 -67 -4 -3 -4 -10 -7
-15 -7 -10 0 -11 154 -1 163 3 4 28 7 54 7 35 0 51 -5 58 -17z m1312 -98 c4
-60 5 -112 3 -114 -2 -3 -29 -5 -59 -5 -59 -1 -72 -8 -77 -46 -2 -15 -11 -26
-22 -28 -11 -3 -16 0 -12 7 8 12 -45 15 -107 4 -41 -6 -41 -7 -21 -75 4 -15
-1 -18 -28 -17 -38 1 -91 16 -68 19 8 1 -3 8 -25 15 -22 8 -88 14 -147 14
l-108 1 0 68 0 69 123 6 c140 7 223 27 232 57 4 11 18 23 33 26 15 4 53 19 85
35 32 16 66 28 75 27 11 -2 16 3 16 15 -2 18 44 37 81 34 18 -2 21 -12 26
-112z m-5486 59 c47 -34 194 -101 260 -118 33 -8 95 -18 138 -22 l78 -7 -3
-66 -3 -66 -86 -10 c-49 -6 -97 -17 -112 -27 -16 -11 -45 -18 -77 -18 l-50 0
0 40 c0 47 2 46 -104 64 -87 15 -106 30 -98 73 4 22 2 25 -12 20 -10 -4 -36
-7 -57 -7 -27 0 -38 -4 -33 -11 3 -6 17 -9 30 -6 13 2 32 -2 41 -9 16 -12 10
-13 -39 -14 -50 0 -58 3 -58 19 0 10 -3 46 -7 81 -5 50 -3 61 7 55 7 -4 16 -2
21 6 6 10 10 5 15 -18 7 -36 16 -39 57 -20 22 10 27 19 27 48 0 56 6 57 65 13z
m-188 -6 c-3 -7 -5 -2 -5 12 0 14 2 19 5 13 2 -7 2 -19 0 -25z m3772 -215 c1
-18 -3 -33 -9 -33 -6 0 -9 32 -9 78 1 71 2 73 10 32 4 -25 8 -60 8 -77z m-361
75 c7 -7 12 -29 12 -51 l0 -39 -82 5 c-46 3 -123 6 -173 7 -77 1 -84 3 -49 10
22 5 62 21 90 36 72 40 177 57 202 32z m482 -75 c0 -33 -3 -44 -11 -36 -9 9
-3 83 7 83 2 0 4 -21 4 -47z m1919 23 c10 -8 12 -37 9 -131 -4 -119 -5 -120
-36 -154 -18 -18 -32 -37 -32 -41 0 -5 -8 -11 -17 -13 -13 -3 -10 -5 7 -6 l25
-2 -28 -15 c-16 -9 -30 -14 -31 -12 -2 2 0 35 5 73 4 39 8 127 8 197 l1 127
38 -6 c20 -3 43 -11 51 -17z m-5939 -56 c0 -29 4 -40 15 -40 9 0 15 -9 14 -22
0 -21 -1 -21 -8 -4 -6 17 -9 16 -19 -10 -6 -16 -13 -42 -15 -59 -2 -16 -5 16
-6 73 0 62 3 102 9 102 6 0 10 -18 10 -40z m30 21 c0 -11 -4 -23 -10 -26 -6
-4 -10 5 -10 19 0 14 5 26 10 26 6 0 10 -9 10 -19z m51 -112 c-7 -26 -9 -28
-10 -11 -1 12 -7 22 -16 22 -8 0 -15 9 -15 20 0 11 4 20 9 20 5 0 13 19 17 43
l8 42 8 -51 c6 -32 5 -65 -1 -85z m3889 95 c0 -2 -11 -4 -25 -4 -14 0 -25 4
-25 9 0 4 11 6 25 3 14 -2 25 -6 25 -8z m-3074 -84 l54 0 0 -80 0 -80 86 0 86
0 -7 -150 -8 -150 162 0 161 0 0 -60 0 -60 -37 0 c-21 0 -65 -4 -98 -9 -33 -6
-87 -11 -120 -13 l-60 -3 -5 63 -5 63 -149 5 c-82 2 -152 7 -155 10 -3 3 -7
36 -9 75 l-4 69 -104 0 -104 0 0 48 c-1 26 -5 66 -9 89 -8 40 -7 42 18 45 22
2 26 8 24 31 -2 25 1 27 40 27 23 0 66 3 95 6 51 7 52 8 52 39 0 36 8 48 28
40 7 -3 38 -5 68 -5z m2467 -16 l168 -7 -3 -66 -3 -66 -71 -3 c-84 -3 -84 -3
-84 -117 0 -94 -3 -97 -75 -85 -33 5 -61 10 -62 10 -2 0 -3 -20 -3 -44 0 -64
-12 -70 -131 -62 -103 6 -170 29 -182 61 -4 8 -5 16 -4 16 1 1 54 5 117 9 102
6 90 7 -100 7 -118 1 -208 -1 -200 -4 25 -10 28 -24 12 -53 -20 -34 -53 -40
-235 -40 l-129 0 4 70 4 70 -87 0 c-48 0 -89 4 -91 10 -1 5 -2 49 0 97 l3 88
80 -3 79 -4 0 60 c0 32 3 62 8 67 7 7 680 0 985 -11z m1757 -24 c10 -18 21
-20 110 -20 l100 0 0 -37 c0 -28 3 -34 10 -23 5 8 10 10 10 4 0 -7 11 -15 25
-18 18 -5 26 -15 31 -42 6 -32 -1 -143 -10 -152 -2 -1 -60 -3 -129 -4 l-125 0
-4 -64 c-2 -35 -7 -67 -12 -71 -4 -4 -79 -7 -167 -5 l-159 3 0 -76 0 -77 -27
6 c-63 13 -172 26 -227 26 l-59 0 7 38 c3 20 6 50 6 65 0 18 4 26 11 22 6 -4
73 -4 150 0 l139 7 0 47 c0 25 3 63 6 84 6 34 9 37 38 37 17 -1 58 -7 91 -15
33 -8 92 -15 132 -15 l71 0 4 53 c3 28 3 55 1 58 -1 4 -44 10 -94 14 l-91 7 6
46 c3 24 6 62 6 83 l0 39 70 0 c59 0 71 -3 80 -20z m-4700 -90 c0 -30 3 -92 7
-137 6 -81 5 -83 -16 -83 -30 0 -61 18 -61 35 0 8 -13 21 -30 30 -35 18 -54
19 -44 3 5 -9 4 -10 -3 -3 -6 6 -13 64 -17 130 l-6 120 85 -20 85 -20 0 -55z
m5270 -10 c0 -98 -2 -110 -17 -110 -30 0 -83 -38 -83 -60 0 -23 -28 -40 -66
-40 -22 0 -25 3 -21 22 4 12 11 65 17 117 18 146 14 138 62 146 24 4 54 13 68
21 14 7 28 13 33 14 4 0 7 -49 7 -110z m-1973 58 c-3 -7 -5 -2 -5 12 0 14 2
19 5 13 2 -7 2 -19 0 -25z m181 -69 c-11 -7 -7 -82 6 -111 6 -13 4 -18 -7 -18
-20 0 -24 13 -26 93 -2 66 -2 68 18 55 12 -7 16 -15 9 -19z m99 25 c-3 -3 -12
-4 -19 -1 -8 3 -5 6 6 6 11 1 17 -2 13 -5z m-280 -186 c-3 -8 -6 -5 -6 6 -1
11 2 17 5 13 3 -3 4 -12 1 -19z m100 -40 c-3 -7 -5 -2 -5 12 0 14 2 19 5 13 2
-7 2 -19 0 -25z m13 -38 c1 25 20 -11 20 -37 0 -22 -4 -23 -67 -21 -60 1 -62
2 -18 5 37 3 45 7 35 14 -11 8 -12 12 -2 16 6 2 12 12 12 21 0 15 2 15 10 2 9
-13 10 -13 10 0z m-1653 -117 c-20 -2 -52 -2 -70 0 -17 2 0 4 38 4 39 0 53 -2
32 -4z m396 -20 c-29 -2 -78 -2 -110 0 -32 2 -8 3 52 3 61 0 87 -1 58 -3z
m989 -123 c-2 -22 -1 -51 2 -65 6 -22 12 -25 47 -25 22 0 49 5 60 10 16 9 19
7 19 -10 0 -17 -6 -20 -51 -20 -79 0 -89 9 -89 85 0 36 3 65 8 65 4 0 6 -18 4
-40z m1890 -70 c3 -124 7 -120 -91 -120 l-53 0 5 113 c3 61 6 113 6 115 1 1
30 2 65 2 l65 0 3 -110z m-4352 48 c6 -24 18 -68 28 -98 l17 -55 -140 7 c-77
4 -156 9 -175 10 l-35 3 -5 82 -5 82 90 4 c50 1 118 4 152 5 l62 2 11 -42z
m-1633 -80 c-2 -24 -4 -7 -4 37 0 44 2 63 4 43 2 -21 2 -57 0 -80z m5066 95
l129 -6 -7 -46 c-3 -25 -9 -56 -12 -69 l-6 -23 -151 7 c-83 3 -151 7 -152 8 0
0 1 34 4 75 l4 73 32 -6 c17 -4 89 -10 159 -13z m607 2 c0 -8 -5 -48 -11 -90
l-11 -75 -184 0 c-101 0 -184 2 -184 5 0 3 13 31 29 63 15 31 31 69 35 85 l6
27 160 0 c134 0 160 -2 160 -15z m-3777 -5 l57 0 0 -70 0 -70 -65 0 c-75 0
-77 3 -88 99 -6 51 -6 53 16 47 12 -3 48 -6 80 -6z m1855 -82 l3 -88 -85 0
c-76 0 -85 -2 -79 -17 4 -11 8 -12 11 -5 2 8 28 12 73 12 l69 0 1 -60 c1 -33
2 -73 2 -90 0 -16 -1 -52 -2 -80 l-1 -49 -52 24 c-29 14 -58 25 -64 25 -6 0
-19 18 -30 40 l-19 39 -85 3 -85 3 -6 50 -6 50 -1 -48 -2 -47 -242 2 -243 3
-3 62 c-2 35 2 71 7 82 10 18 3 19 -159 26 l-170 7 0 58 c0 32 2 65 5 72 5 12
100 14 583 14 l577 -1 3 -87z m260 -35 c-16 -2 -40 -2 -55 0 -16 2 -3 4 27 4
30 0 43 -2 28 -4z m-2068 -178 l0 -45 -63 0 -63 0 4 35 c4 38 17 44 110 54 8
1 12 -14 12 -44z m3062 26 c3 -3 8 -19 10 -36 l3 -30 -65 0 -65 0 -6 37 c-3
21 -4 39 -2 41 5 6 117 -5 125 -12z m-772 2 c0 -5 -34 -8 -75 -8 -41 0 -75 3
-75 8 0 4 34 7 75 7 41 0 75 -3 75 -7z m925 -3 c3 -5 1 -10 -4 -10 -6 0 -11 5
-11 10 0 6 2 10 4 10 3 0 8 -4 11 -10z m-1055 -94 c0 -16 5 -18 35 -13 40 7
73 32 52 40 -7 4 -6 6 4 6 17 1 29 -26 29 -66 0 -19 -5 -23 -32 -23 -18 0 -50
3 -70 6 -38 7 -38 7 -38 53 0 33 3 42 10 31 5 -8 10 -23 10 -34z m-157 -73
c-21 -4 -23 -10 -23 -73 l0 -69 43 -4 42 -4 -47 -1 -48 -2 0 80 0 80 28 -1
c23 -2 24 -2 5 -6z m107 -1 c0 -4 -16 -6 -35 -4 -19 2 -35 6 -35 8 0 2 16 4
35 4 19 0 35 -4 35 -8z m225 -2 c-3 -5 -2 -10 2 -10 5 0 7 -19 6 -42 -2 -24 0
-38 2 -32 7 15 55 5 55 -11 0 -7 9 -15 20 -18 44 -11 19 -27 -44 -27 -63 0
-64 0 -70 31 -3 17 -6 51 -6 75 0 38 3 44 21 44 11 0 17 -4 14 -10z m-229
-138 c-11 -10 -12 3 -7 53 l6 50 3 -49 c2 -26 1 -51 -2 -54z m-3743 71 c-13
-2 -33 -2 -45 0 -13 2 -3 4 22 4 25 0 35 -2 23 -4z m3917 -163 l0 -81 -72 3
-73 3 -3 72 -3 72 73 4 c40 1 74 4 76 5 1 1 2 -34 2 -78z m2373 -17 c-7 -2
-19 -2 -25 0 -7 3 -2 5 12 5 14 0 19 -2 13 -5z m-2858 -65 c2 -7 6 -76 8 -154
l5 -141 -26 5 c-22 4 -24 2 -19 -19 4 -13 10 -48 13 -76 8 -60 8 -59 -78 -66
l-58 -4 0 84 0 83 -250 0 -250 0 0 59 c0 36 5 63 13 69 7 6 46 13 87 15 41 1
-41 4 -182 5 l-258 2 0 70 0 69 83 4 c45 1 268 4 495 5 323 2 413 -1 417 -10z
m2715 -83 c0 -11 -11 -15 -37 -14 l-38 0 35 13 c19 8 36 14 38 15 1 0 2 -6 2
-14z m-5763 -57 c-3 -8 -6 -5 -6 6 -1 11 2 17 5 13 3 -3 4 -12 1 -19z m3416
-165 c-7 -2 -19 -2 -25 0 -7 3 -2 5 12 5 14 0 19 -2 13 -5z m-2616 -505 c-2
-13 -4 -3 -4 22 0 25 2 35 4 23 2 -13 2 -33 0 -45z m3393 -181 l0 -82 -158 0
-157 0 -3 85 -3 85 161 -3 160 -3 0 -82z m-3227 76 c-7 -2 -19 -2 -25 0 -7 3
-2 5 12 5 14 0 19 -2 13 -5z m2769 -201 c14 -3 16 -10 11 -31 -3 -14 -9 -28
-12 -31 -4 -3 -12 -17 -18 -32 -11 -25 -18 -28 -60 -29 -27 0 -63 -2 -80 -5
l-33 -4 0 71 0 70 87 -2 c47 -1 95 -4 105 -7z m-814 -324 c7 -7 12 -24 12 -38
0 -14 9 -32 20 -40 26 -19 25 -27 -2 -33 -13 -2 -31 -8 -40 -12 -16 -6 -18 0
-18 64 0 71 5 82 28 59z"/>
<path d="M4052 8928 c4 -9 2 -19 -5 -21 -31 -11 5 -16 59 -8 54 8 55 9 17 10
-25 1 -49 8 -59 19 -16 15 -17 15 -12 0z"/>
<path d="M4178 8713 c7 -3 16 -2 19 1 4 3 -2 6 -13 5 -11 0 -14 -3 -6 -6z"/>
<path d="M1151 8199 c0 -71 1 -72 12 -39 10 29 17 36 45 38 24 2 32 8 32 23 0
16 8 19 48 20 125 3 182 19 66 19 -38 0 -99 3 -136 7 l-68 6 1 -74z"/>
<path d="M1025 8110 c-77 -5 -79 -6 -50 -19 35 -15 136 -4 143 17 2 6 0 11 -5
10 -4 -1 -44 -4 -88 -8z"/>
<path d="M1082 7780 c0 -14 2 -19 5 -12 2 6 2 18 0 25 -3 6 -5 1 -5 -13z"/>
<path d="M8368 8323 c6 -2 18 -2 25 0 6 3 1 5 -13 5 -14 0 -19 -2 -12 -5z"/>
<path d="M2027 7748 c7 -101 10 -111 38 -106 21 4 24 0 30 -38 3 -24 10 -46
14 -48 10 -7 43 29 65 69 9 17 28 45 41 64 l24 33 -37 44 -37 43 -72 1 -71 0
5 -62z m145 -33 c17 -38 -1 -51 -41 -31 -34 18 -37 26 -19 44 20 20 48 14 60
-13z"/>
<path d="M2298 7733 c-26 -4 -27 -6 -22 -47 6 -39 3 -46 -27 -74 -18 -17 -48
-39 -66 -49 -18 -10 -33 -22 -33 -28 0 -6 20 -22 45 -37 25 -15 45 -32 45 -38
0 -16 -19 -12 -50 10 -16 11 -45 27 -64 35 -35 15 -37 14 -82 -20 -25 -19 -55
-35 -65 -35 -15 0 -20 -6 -17 -22 3 -23 4 -23 148 -20 80 2 149 8 154 13 6 5
5 22 -1 43 -14 47 -6 52 90 61 46 4 77 12 78 19 0 6 2 28 5 48 8 63 -50 151
-96 147 -8 -1 -27 -4 -42 -6z"/>
<path d="M7835 7694 c-40 -41 -48 -63 -43 -124 l3 -44 80 -3 c44 -2 106 -4
138 -4 31 0 57 -4 57 -8 0 -17 -40 -43 -86 -54 -26 -7 -49 -17 -51 -23 -6 -18
31 -24 172 -31 99 -4 142 -2 179 9 67 20 71 38 9 39 -26 1 -59 3 -73 4 -42 6
-149 76 -201 133 -54 59 -60 90 -21 107 31 14 28 21 -15 29 -85 13 -111 8
-148 -30z"/>
<path d="M5648 7292 c-15 -3 -16 -7 -7 -24 6 -11 9 -36 7 -54 -2 -19 -1 -34 3
-34 12 0 16 75 5 83 -8 5 -6 10 4 16 18 12 11 19 -12 13z"/>
<path d="M5563 7183 c15 -2 37 -2 50 0 12 2 0 4 -28 4 -27 0 -38 -2 -22 -4z"/>
<path d="M5682 7080 c0 -19 2 -27 5 -17 2 9 2 25 0 35 -3 9 -5 1 -5 -18z"/>
<path d="M5550 6985 c0 -8 4 -15 9 -15 5 0 11 7 15 15 3 9 0 15 -9 15 -8 0
-15 -7 -15 -15z"/>
<path d="M6002 6770 c0 -14 2 -19 5 -12 2 6 2 18 0 25 -3 6 -5 1 -5 -13z"/>
<path d="M5807 5283 c-10 -9 -9 -43 2 -43 13 0 23 32 13 42 -5 5 -11 5 -15 1z"/>
<path d="M3015 3540 l-80 -5 -3 -39 c-2 -22 -1 -50 2 -63 6 -22 11 -23 91 -23
l85 0 0 64 c0 36 -3 66 -7 68 -5 2 -44 1 -88 -2z"/>
<path d="M5182 3592 c-1 -15 -6 -21 -14 -16 -8 5 -9 2 -5 -9 5 -14 -2 -17 -46
-18 -29 -1 -41 -4 -27 -6 14 -3 29 -9 35 -14 30 -29 68 4 62 53 -2 20 -4 24
-5 10z"/>
<path d="M4915 2890 c-24 -6 -18 -8 32 -9 55 -1 62 -3 66 -23 3 -17 5 -14 6
10 1 31 0 32 -36 31 -21 -1 -51 -5 -68 -9z"/>
<path d="M5200 2114 l0 -66 28 8 c15 4 37 8 50 8 23 1 28 12 35 66 1 14 6 31
10 38 6 9 -7 12 -57 12 l-66 0 0 -66z"/>
</g>
</svg>
